<svg width="273" height="168" fill="none" xmlns="http://www.w3.org/2000/svg"><path d="M4.564 17.072c-.12 0-.212-.032-.276-.096a.418.418 0 0 1-.096-.288V9.2H1.324a.357.357 0 0 1-.264-.096.326.326 0 0 1-.096-.24c0-.104.032-.184.096-.24a.387.387 0 0 1 .264-.084h6.492c.112 0 .196.028.252.084.064.056.096.136.096.24a.34.34 0 0 1-.096.252c-.056.056-.14.084-.252.084h-2.88v7.488c0 .12-.032.216-.096.288-.056.064-.148.096-.276.096Zm5.407.024a2.38 2.38 0 0 1-1.056-.228 1.921 1.921 0 0 1-.732-.624 1.565 1.565 0 0 1-.264-.888c0-.432.108-.772.324-1.02.216-.248.58-.42 1.092-.516.512-.104 1.216-.156 2.112-.156h.516v.54h-.504c-.72 0-1.284.032-1.692.096-.4.056-.68.164-.84.324-.16.16-.24.384-.24.672 0 .36.124.652.372.876.248.224.584.336 1.008.336.344 0 .644-.08.9-.24.264-.168.472-.396.624-.684.152-.288.228-.616.228-.984v-1.368c0-.536-.108-.924-.324-1.164-.216-.248-.56-.372-1.032-.372-.304 0-.6.04-.888.12-.28.08-.58.208-.9.384a.344.344 0 0 1-.24.048.288.288 0 0 1-.156-.096.533.533 0 0 1-.072-.168.358.358 0 0 1 .036-.204.357.357 0 0 1 .168-.156c.336-.184.676-.32 1.02-.408a3.871 3.871 0 0 1 1.02-.144c.472 0 .86.08 1.164.24.312.16.54.4.684.72.152.32.228.732.228 1.236V16.7c0 .12-.028.212-.084.276-.056.064-.14.096-.252.096a.357.357 0 0 1-.264-.096c-.064-.064-.096-.156-.096-.276v-1.104h.12c-.072.312-.2.58-.384.804a1.824 1.824 0 0 1-.684.516c-.272.12-.576.18-.912.18Zm4.841-.024c-.12 0-.211-.032-.275-.096-.065-.064-.097-.156-.097-.276V8.84c0-.128.033-.22.097-.276.063-.064.155-.096.275-.096.113 0 .2.032.264.096.064.056.096.148.096.276v4.98h.024l2.688-2.46c.088-.08.165-.144.229-.192a.488.488 0 0 1 .276-.072c.096 0 .172.028.227.084.056.056.08.124.073.204 0 .072-.04.152-.12.24l-2.856 2.604v-.468l3.107 2.76c.096.088.145.176.145.264a.241.241 0 0 1-.073.204.308.308 0 0 1-.227.084A.465.465 0 0 1 18.4 17a1.477 1.477 0 0 1-.264-.204l-2.94-2.592h-.024V16.7c0 .248-.12.372-.36.372Zm7.809.024c-.6 0-1.116-.12-1.548-.36a2.432 2.432 0 0 1-.996-1.032c-.232-.448-.348-.98-.348-1.596 0-.608.116-1.136.348-1.584.232-.456.552-.812.96-1.068a2.669 2.669 0 0 1 1.428-.384c.392 0 .736.068 1.032.204a2 2 0 0 1 .768.564c.216.24.38.536.492.888.112.344.168.736.168 1.176 0 .112-.032.196-.096.252-.056.056-.136.084-.24.084h-4.332v-.54h4.212l-.192.156c0-.464-.068-.856-.204-1.176a1.603 1.603 0 0 0-.612-.756c-.264-.176-.592-.264-.984-.264-.44 0-.812.104-1.116.312-.304.2-.532.48-.684.84-.152.352-.228.76-.228 1.224v.06c0 .768.188 1.36.564 1.776.376.408.904.612 1.584.612.296 0 .58-.04.852-.12.28-.08.552-.216.816-.408a.402.402 0 0 1 .228-.084c.08 0 .144.02.192.06.056.04.092.092.108.156.024.056.02.12-.012.192a.403.403 0 0 1-.156.18 2.736 2.736 0 0 1-.924.48c-.36.104-.72.156-1.08.156Zm8.62 0a2.38 2.38 0 0 1-1.056-.228 1.921 1.921 0 0 1-.732-.624 1.565 1.565 0 0 1-.264-.888c0-.432.108-.772.323-1.02.216-.248.58-.42 1.093-.516.511-.104 1.215-.156 2.112-.156h.516v.54h-.505c-.72 0-1.284.032-1.692.096-.4.056-.68.164-.84.324-.16.16-.24.384-.24.672 0 .36.125.652.372.876.248.224.585.336 1.009.336.343 0 .643-.08.9-.24.264-.168.471-.396.623-.684.153-.288.229-.616.229-.984v-1.368c0-.536-.108-.924-.325-1.164-.216-.248-.56-.372-1.032-.372-.303 0-.6.04-.887.12-.28.08-.58.208-.9.384-.088.048-.169.064-.24.048a.288.288 0 0 1-.156-.096.533.533 0 0 1-.072-.168.358.358 0 0 1 .035-.204.357.357 0 0 1 .168-.156c.337-.184.677-.32 1.02-.408a3.872 3.872 0 0 1 1.02-.144c.473 0 .86.08 1.165.24.312.16.54.4.684.72.151.32.227.732.227 1.236V16.7c0 .12-.027.212-.084.276-.056.064-.14.096-.252.096a.357.357 0 0 1-.264-.096.378.378 0 0 1-.096-.276v-1.104h.12c-.072.312-.2.58-.383.804a1.824 1.824 0 0 1-.684.516c-.272.12-.576.18-.912.18Zm12.1 2.136a.357.357 0 0 1-.264-.096c-.064-.064-.096-.156-.096-.276v-3.3h.132a2 2 0 0 1-.768 1.116c-.384.28-.848.42-1.392.42-.528 0-.988-.12-1.38-.36a2.423 2.423 0 0 1-.888-1.044c-.208-.456-.312-.992-.312-1.608 0-.616.104-1.148.312-1.596.216-.448.516-.796.9-1.044.392-.248.848-.372 1.368-.372.544 0 1.008.14 1.392.42.384.28.64.66.768 1.14l-.132.072V11.48c0-.128.032-.224.096-.288.064-.064.156-.096.276-.096.112 0 .2.032.264.096s.096.16.096.288v7.38c0 .12-.032.212-.096.276-.064.064-.156.096-.276.096Zm-2.292-2.748c.4 0 .744-.092 1.032-.276a1.78 1.78 0 0 0 .672-.828c.16-.36.24-.792.24-1.296 0-.76-.176-1.348-.528-1.764-.344-.416-.816-.624-1.416-.624-.392 0-.736.096-1.032.288-.288.184-.512.456-.672.816-.152.352-.228.78-.228 1.284 0 .768.176 1.36.528 1.776.352.416.82.624 1.404.624Zm6.639.612c-.464 0-.852-.084-1.164-.252a1.579 1.579 0 0 1-.684-.756c-.152-.336-.228-.752-.228-1.248v-3.36c0-.128.032-.224.096-.288.064-.064.156-.096.276-.096.112 0 .2.032.264.096s.096.16.096.288v3.324c0 .56.116.98.348 1.26.232.272.596.408 1.092.408.544 0 .984-.18 1.32-.54.336-.368.504-.848.504-1.44V11.48c0-.128.032-.224.096-.288.064-.064.156-.096.276-.096.112 0 .2.032.264.096s.096.16.096.288v5.22c0 .248-.116.372-.348.372a.357.357 0 0 1-.264-.096c-.064-.064-.096-.156-.096-.276v-1.188l.144.084c-.152.488-.416.86-.792 1.116a2.248 2.248 0 0 1-1.296.384Zm4.953-.048c-.12 0-.212-.036-.276-.108a.418.418 0 0 1-.096-.288v-5.136c0-.128.032-.224.096-.288.064-.064.156-.096.276-.096.112 0 .2.032.264.096s.096.16.096.288v5.136c0 .12-.032.216-.096.288-.056.072-.144.108-.264.108Zm0-7.368a.564.564 0 0 1-.396-.132.503.503 0 0 1-.132-.372c0-.16.044-.28.132-.36a.564.564 0 0 1 .396-.132c.168 0 .296.044.384.132.096.08.144.2.144.36a.48.48 0 0 1-.144.372c-.088.088-.216.132-.384.132Zm2.3 7.32a.405.405 0 0 1-.204-.048.38.38 0 0 1-.108-.144.44.44 0 0 1 0-.204.606.606 0 0 1 .132-.228l3.516-4.812v.204h-3.384a.358.358 0 0 1-.24-.072.339.339 0 0 1-.072-.228c0-.088.024-.156.072-.204.056-.056.136-.084.24-.084h3.744c.096 0 .172.02.228.06a.214.214 0 0 1 .12.132c.024.056.028.12.012.192a.548.548 0 0 1-.108.216l-3.564 4.848v-.216h3.54c.208 0 .312.096.312.288a.308.308 0 0 1-.084.228.339.339 0 0 1-.228.072H54.94Zm10.715.096c-.432 0-.792-.08-1.08-.24a1.531 1.531 0 0 1-.648-.684c-.144-.304-.216-.676-.216-1.116v-3.288h-.888a.41.41 0 0 1-.252-.072.287.287 0 0 1-.096-.228.24.24 0 0 1 .096-.204.369.369 0 0 1 .252-.084h.888v-1.5c0-.128.032-.22.096-.276.064-.064.156-.096.276-.096.112 0 .2.032.264.096.064.056.096.148.096.276v1.5h1.62c.112 0 .196.028.252.084a.254.254 0 0 1 .084.204.308.308 0 0 1-.084.228c-.056.048-.14.072-.252.072h-1.62v3.192c0 .488.1.86.3 1.116.2.256.532.384.996.384.16 0 .292-.016.396-.048a.861.861 0 0 1 .276-.06c.056 0 .104.024.144.072.048.048.072.124.072.228a.426.426 0 0 1-.048.192.186.186 0 0 1-.144.12c-.088.032-.208.06-.36.084a2.05 2.05 0 0 1-.42.048Zm4.08 0c-.543 0-1.015-.124-1.415-.372a2.526 2.526 0 0 1-.936-1.044c-.216-.448-.324-.98-.324-1.596 0-.456.06-.868.18-1.236.128-.368.308-.684.54-.948.24-.272.524-.476.852-.612a2.773 2.773 0 0 1 1.104-.216c.552 0 1.028.124 1.428.372.4.248.708.6.924 1.056.224.448.336.976.336 1.584 0 .464-.064.88-.192 1.248-.12.368-.3.684-.54.948a2.374 2.374 0 0 1-.84.612c-.328.136-.7.204-1.116.204Zm0-.612c.4 0 .745-.092 1.033-.276a1.78 1.78 0 0 0 .672-.828c.16-.36.24-.792.24-1.296 0-.76-.176-1.348-.528-1.764-.344-.416-.816-.624-1.416-.624-.392 0-.736.096-1.032.288-.288.184-.512.456-.672.816-.152.352-.228.78-.228 1.284 0 .768.176 1.36.528 1.776.352.416.82.624 1.404.624Zm9.803 2.772c-.432 0-.852-.056-1.26-.168a3.192 3.192 0 0 1-1.092-.516.31.31 0 0 1-.132-.156.39.39 0 0 1 0-.192.424.424 0 0 1 .084-.156.275.275 0 0 1 .156-.084.33.33 0 0 1 .192.036c.352.232.688.392 1.008.48.328.096.668.144 1.02.144.584 0 1.028-.164 1.332-.492.304-.32.456-.78.456-1.38v-1.488h.12c-.12.496-.376.884-.768 1.164-.392.28-.856.42-1.392.42-.536 0-1-.12-1.392-.36a2.506 2.506 0 0 1-.912-1.02c-.208-.44-.312-.948-.312-1.524 0-.432.06-.824.18-1.176a2.68 2.68 0 0 1 .516-.912c.232-.256.508-.452.828-.588.32-.144.684-.216 1.092-.216.536 0 1 .144 1.392.432.392.28.644.66.756 1.14l-.12.072V11.48c0-.128.032-.224.096-.288a.357.357 0 0 1 .264-.096c.12 0 .208.032.264.096.064.064.096.16.096.288v5.184c0 .856-.208 1.5-.624 1.932-.416.44-1.032.66-1.848.66Zm-.192-3.012c.4 0 .744-.092 1.032-.276a1.89 1.89 0 0 0 .684-.792c.16-.344.24-.748.24-1.212 0-.696-.176-1.248-.528-1.656-.352-.408-.828-.612-1.428-.612-.4 0-.748.092-1.044.276a1.797 1.797 0 0 0-.684.792c-.152.336-.228.736-.228 1.2 0 .696.176 1.252.528 1.668.352.408.828.612 1.428.612Zm7.13.852c-.6 0-1.117-.12-1.549-.36a2.432 2.432 0 0 1-.996-1.032c-.232-.448-.348-.98-.348-1.596 0-.608.116-1.136.348-1.584.232-.456.552-.812.96-1.068a2.669 2.669 0 0 1 1.428-.384c.392 0 .736.068 1.032.204a2 2 0 0 1 .768.564c.216.24.38.536.492.888.112.344.168.736.168 1.176 0 .112-.032.196-.096.252-.056.056-.136.084-.24.084h-4.332v-.54h4.212l-.192.156c0-.464-.068-.856-.204-1.176a1.603 1.603 0 0 0-.612-.756c-.264-.176-.592-.264-.984-.264-.44 0-.812.104-1.116.312-.304.2-.532.48-.684.84-.152.352-.228.76-.228 1.224v.06c0 .768.188 1.36.564 1.776.376.408.904.612 1.584.612.296 0 .58-.04.852-.12.28-.08.552-.216.816-.408a.402.402 0 0 1 .228-.084c.08 0 .144.02.192.06.056.04.092.092.108.156.024.056.02.12-.012.192a.403.403 0 0 1-.156.18 2.736 2.736 0 0 1-.924.48c-.36.104-.72.156-1.08.156Zm5.992 0c-.432 0-.792-.08-1.08-.24a1.531 1.531 0 0 1-.648-.684c-.144-.304-.216-.676-.216-1.116v-3.288h-.889a.41.41 0 0 1-.251-.072.287.287 0 0 1-.097-.228.24.24 0 0 1 .097-.204.369.369 0 0 1 .251-.084h.889v-1.5c0-.128.031-.22.096-.276.064-.064.156-.096.276-.096.111 0 .2.032.263.096.065.056.097.148.097.276v1.5h1.62c.112 0 .196.028.252.084a.254.254 0 0 1 .084.204.308.308 0 0 1-.084.228c-.056.048-.14.072-.253.072h-1.62v3.192c0 .488.1.86.3 1.116.2.256.532.384.996.384.16 0 .292-.016.396-.048a.861.861 0 0 1 .277-.06c.056 0 .104.024.144.072.047.048.072.124.072.228a.426.426 0 0 1-.049.192.186.186 0 0 1-.143.12c-.088.032-.209.06-.36.084a2.05 2.05 0 0 1-.42.048Zm-88.709 14a2.38 2.38 0 0 1-1.056-.228 1.921 1.921 0 0 1-.732-.624 1.565 1.565 0 0 1-.264-.888c0-.432.108-.772.324-1.02.216-.248.58-.42 1.092-.516.512-.104 1.216-.156 2.112-.156h.516v.54h-.504c-.72 0-1.284.032-1.692.096-.4.056-.68.164-.84.324-.16.16-.24.384-.24.672 0 .36.124.652.372.876.248.224.584.336 1.008.336.344 0 .644-.08.9-.24.264-.168.472-.396.624-.684.152-.288.228-.616.228-.984v-1.368c0-.536-.108-.924-.324-1.164-.216-.248-.56-.372-1.032-.372-.304 0-.6.04-.888.12-.28.08-.58.208-.9.384a.344.344 0 0 1-.24.048.288.288 0 0 1-.156-.096.533.533 0 0 1-.072-.168.358.358 0 0 1 .036-.204.357.357 0 0 1 .168-.156c.336-.184.676-.32 1.02-.408a3.872 3.872 0 0 1 1.02-.144c.472 0 .86.08 1.164.24.312.16.54.4.684.72.152.32.228.732.228 1.236V30.7c0 .12-.028.212-.084.276-.056.064-.14.096-.252.096a.357.357 0 0 1-.264-.096c-.064-.064-.096-.156-.096-.276v-1.104h.12c-.072.312-.2.58-.384.804a1.824 1.824 0 0 1-.684.516c-.272.12-.576.18-.912.18Zm7.865 2.136c-.12 0-.212-.032-.276-.096-.064-.064-.096-.156-.096-.276v-7.38c0-.128.032-.224.096-.288.064-.064.156-.096.276-.096.112 0 .2.032.264.096s.096.16.096.288v1.224l-.132-.072c.136-.48.396-.86.78-1.14.384-.28.848-.42 1.392-.42.52 0 .972.124 1.356.372.392.248.692.596.9 1.044.216.448.324.98.324 1.596 0 .616-.108 1.152-.324 1.608a2.423 2.423 0 0 1-.888 1.044c-.384.24-.84.36-1.368.36-.544 0-1.008-.14-1.392-.42a2.06 2.06 0 0 1-.78-1.116h.132v3.3c0 .12-.032.212-.096.276a.357.357 0 0 1-.264.096Zm2.292-2.748c.392 0 .732-.092 1.02-.276.296-.192.524-.468.684-.828.16-.36.24-.792.24-1.296 0-.76-.176-1.348-.528-1.764-.352-.416-.824-.624-1.416-.624-.392 0-.736.096-1.032.288-.288.184-.512.456-.672.816-.16.352-.24.78-.24 1.284 0 .768.176 1.36.528 1.776.352.416.824.624 1.416.624Zm6.77.612c-.6 0-1.116-.12-1.548-.36a2.432 2.432 0 0 1-.996-1.032c-.232-.448-.348-.98-.348-1.596 0-.608.116-1.136.348-1.584.232-.456.552-.812.96-1.068a2.669 2.669 0 0 1 1.428-.384c.392 0 .736.068 1.032.204a2 2 0 0 1 .768.564c.216.24.38.536.492.888.112.344.168.736.168 1.176 0 .112-.032.196-.096.252-.056.056-.136.084-.24.084h-4.332v-.54h4.212l-.192.156c0-.464-.068-.856-.204-1.176a1.603 1.603 0 0 0-.612-.756c-.264-.176-.592-.264-.984-.264-.44 0-.812.104-1.116.312-.304.2-.532.48-.684.84-.152.352-.228.76-.228 1.224v.06c0 .768.188 1.36.564 1.776.376.408.904.612 1.584.612.296 0 .58-.04.852-.12.28-.08.552-.216.816-.408a.402.402 0 0 1 .228-.084c.08 0 .144.02.192.06.056.04.092.092.108.156.024.056.02.12-.012.192a.403.403 0 0 1-.156.18 2.736 2.736 0 0 1-.924.48c-.36.104-.72.156-1.08.156Zm4.168-.024c-.12 0-.212-.032-.276-.096-.064-.064-.096-.156-.096-.276v-5.22c0-.128.032-.224.096-.288.064-.064.156-.096.276-.096.112 0 .196.032.252.096.064.064.096.16.096.288v1.068h-.12c.144-.472.4-.836.768-1.092.376-.256.824-.388 1.344-.396a.34.34 0 0 1 .24.06c.064.048.096.124.096.228.008.112-.016.2-.072.264-.056.056-.148.092-.276.108l-.168.012c-.568.056-1.008.244-1.32.564-.312.32-.468.752-.468 1.296V30.7c0 .12-.032.212-.096.276-.056.064-.148.096-.276.096Zm5.567.024c-.36 0-.72-.048-1.08-.144a3.102 3.102 0 0 1-1.008-.492.322.322 0 0 1-.132-.144.52.52 0 0 1-.012-.192.327.327 0 0 1 .084-.156.282.282 0 0 1 .168-.084.3.3 0 0 1 .204.06c.312.208.616.352.912.432.296.08.592.12.888.12.488 0 .86-.092 1.116-.276a.87.87 0 0 0 .384-.744c0-.256-.084-.452-.252-.588-.16-.144-.424-.26-.792-.348l-1.044-.24c-.504-.112-.876-.292-1.116-.54-.24-.256-.36-.584-.36-.984 0-.344.088-.644.264-.9.184-.256.44-.452.768-.588a2.9 2.9 0 0 1 1.152-.216c.352 0 .688.052 1.008.156.32.104.6.264.84.48a.302.302 0 0 1 .12.168.265.265 0 0 1 0 .192.288.288 0 0 1-.096.144.254.254 0 0 1-.168.06.372.372 0 0 1-.204-.072 2.385 2.385 0 0 0-.732-.384 2.384 2.384 0 0 0-.78-.132c-.464 0-.824.096-1.08.288a.934.934 0 0 0-.372.78c0 .248.076.448.228.6.16.152.408.268.744.348l1.044.24c.52.12.908.3 1.164.54.256.232.384.548.384.948 0 .512-.204.92-.612 1.224-.4.296-.944.444-1.632.444Zm6.15 0c-.543 0-1.015-.124-1.415-.372a2.526 2.526 0 0 1-.936-1.044c-.216-.448-.324-.98-.324-1.596 0-.456.06-.868.18-1.236.128-.368.308-.684.54-.948.24-.272.524-.476.852-.612a2.773 2.773 0 0 1 1.104-.216c.552 0 1.028.124 1.428.372.4.248.708.6.924 1.056.224.448.336.976.336 1.584 0 .464-.064.88-.192 1.248-.12.368-.3.684-.54.948a2.374 2.374 0 0 1-.84.612c-.328.136-.7.204-1.116.204Zm0-.612c.4 0 .745-.092 1.033-.276a1.78 1.78 0 0 0 .672-.828c.16-.36.24-.792.24-1.296 0-.76-.176-1.348-.528-1.764-.344-.416-.816-.624-1.416-.624-.392 0-.736.096-1.032.288-.288.184-.512.456-.672.816-.152.352-.228.78-.228 1.284 0 .768.176 1.36.528 1.776.352.416.82.624 1.404.624Zm4.62.588c-.12 0-.213-.032-.277-.096-.064-.064-.096-.156-.096-.276v-5.22c0-.128.032-.224.096-.288.064-.064.156-.096.276-.096.112 0 .196.032.252.096.064.064.096.16.096.288v1.128l-.132-.072c.16-.48.432-.844.816-1.092a2.46 2.46 0 0 1 1.344-.372c.464 0 .848.084 1.152.252.312.16.544.408.696.744.152.336.228.756.228 1.26V30.7c0 .12-.032.212-.096.276a.357.357 0 0 1-.264.096c-.12 0-.212-.032-.276-.096-.064-.064-.096-.156-.096-.276v-3.312c0-.584-.116-1.008-.348-1.272-.232-.272-.6-.408-1.104-.408-.576 0-1.04.18-1.392.54-.344.352-.516.828-.516 1.428V30.7c0 .248-.12.372-.36.372Zm8.142.024a2.38 2.38 0 0 1-1.056-.228 1.921 1.921 0 0 1-.732-.624 1.565 1.565 0 0 1-.264-.888c0-.432.108-.772.324-1.02.216-.248.58-.42 1.092-.516.512-.104 1.216-.156 2.112-.156h.516v.54h-.504c-.72 0-1.284.032-1.692.096-.4.056-.68.164-.84.324-.16.16-.24.384-.24.672 0 .36.124.652.372.876.248.224.584.336 1.008.336.344 0 .644-.08.9-.24.264-.168.472-.396.624-.684.152-.288.228-.616.228-.984v-1.368c0-.536-.108-.924-.324-1.164-.216-.248-.56-.372-1.032-.372-.304 0-.6.04-.888.12-.28.08-.58.208-.9.384a.344.344 0 0 1-.24.048.288.288 0 0 1-.156-.096.533.533 0 0 1-.072-.168.358.358 0 0 1 .036-.204.357.357 0 0 1 .168-.156c.336-.184.676-.32 1.02-.408a3.872 3.872 0 0 1 1.02-.144c.472 0 .86.08 1.164.24.312.16.54.4.684.72.152.32.228.732.228 1.236V30.7c0 .12-.028.212-.084.276-.056.064-.14.096-.252.096a.357.357 0 0 1-.264-.096c-.064-.064-.096-.156-.096-.276v-1.104h.12c-.072.312-.2.58-.384.804a1.824 1.824 0 0 1-.684.516c-.272.12-.576.18-.912.18Zm6.15 0c-.536 0-.952-.168-1.248-.504-.288-.336-.432-.812-.432-1.428V22.84c0-.128.032-.22.096-.276.064-.064.156-.096.276-.096.112 0 .2.032.264.096.064.056.096.148.096.276v6.24c0 .464.092.812.276 1.044.184.224.452.336.804.336.08 0 .148-.004.204-.012.056-.008.112-.012.168-.012.072-.008.124.008.156.048.04.032.06.104.06.216s-.028.196-.084.252a.522.522 0 0 1-.276.12 1.274 1.274 0 0 1-.18.012 1.274 1.274 0 0 1-.18.012Zm2.114-.048c-.12 0-.212-.036-.276-.108a.418.418 0 0 1-.096-.288v-5.136c0-.128.032-.224.096-.288.064-.064.156-.096.276-.096.112 0 .2.032.264.096s.096.16.096.288v5.136c0 .12-.032.216-.096.288-.056.072-.144.108-.264.108Zm0-7.368a.564.564 0 0 1-.396-.132.503.503 0 0 1-.132-.372c0-.16.044-.28.132-.36a.564.564 0 0 1 .396-.132c.168 0 .296.044.384.132.096.08.144.2.144.36a.48.48 0 0 1-.144.372c-.088.088-.216.132-.384.132Zm2.3 7.32a.405.405 0 0 1-.204-.048.38.38 0 0 1-.108-.144.44.44 0 0 1 0-.204.605.605 0 0 1 .132-.228l3.516-4.812v.204H59.85a.358.358 0 0 1-.24-.072.339.339 0 0 1-.072-.228c0-.088.024-.156.072-.204.056-.056.136-.084.24-.084h3.744c.096 0 .172.02.228.06a.214.214 0 0 1 .12.132c.024.056.028.12.012.192a.548.548 0 0 1-.108.216l-3.564 4.848v-.216h3.54c.208 0 .312.096.312.288a.308.308 0 0 1-.084.228.339.339 0 0 1-.228.072h-3.924Zm7.91.096c-.6 0-1.116-.12-1.548-.36a2.432 2.432 0 0 1-.996-1.032c-.232-.448-.348-.98-.348-1.596 0-.608.116-1.136.348-1.584.232-.456.552-.812.96-1.068a2.669 2.669 0 0 1 1.428-.384c.392 0 .736.068 1.032.204a2 2 0 0 1 .768.564c.216.24.38.536.492.888.112.344.168.736.168 1.176 0 .112-.032.196-.096.252-.056.056-.136.084-.24.084h-4.332v-.54h4.212l-.192.156c0-.464-.068-.856-.204-1.176a1.603 1.603 0 0 0-.612-.756c-.264-.176-.592-.264-.984-.264-.44 0-.812.104-1.116.312-.304.2-.532.48-.684.84-.152.352-.228.76-.228 1.224v.06c0 .768.188 1.36.564 1.776.376.408.904.612 1.584.612.296 0 .58-.04.852-.12.28-.08.552-.216.816-.408a.402.402 0 0 1 .228-.084c.08 0 .144.02.192.06.056.04.092.092.108.156.024.056.02.12-.012.192a.403.403 0 0 1-.156.18 2.736 2.736 0 0 1-.924.48c-.36.104-.72.156-1.08.156Zm6.016 0c-.52 0-.975-.12-1.367-.36a2.503 2.503 0 0 1-.9-1.044c-.209-.456-.313-.992-.313-1.608 0-.616.105-1.148.313-1.596.207-.448.504-.796.888-1.044.392-.248.852-.372 1.38-.372.543 0 1.007.14 1.391.42.385.28.64.656.769 1.128h-.132v-3.78c0-.128.032-.22.096-.276a.357.357 0 0 1 .264-.096c.12 0 .212.032.276.096.063.056.096.148.096.276v7.86c0 .12-.032.212-.096.276a.357.357 0 0 1-.264.096c-.12 0-.212-.032-.276-.096-.064-.064-.096-.156-.096-.276v-1.236l.132.084a2.002 2.002 0 0 1-.769 1.128c-.383.28-.847.42-1.391.42Zm.097-.612c.4 0 .743-.092 1.031-.276a1.78 1.78 0 0 0 .672-.828c.16-.36.24-.792.24-1.296 0-.76-.175-1.348-.528-1.764-.343-.416-.816-.624-1.415-.624-.393 0-.737.096-1.033.288-.288.184-.512.456-.672.816-.151.352-.227.78-.227 1.284 0 .768.175 1.36.527 1.776.352.416.82.624 1.404.624Zm7.981 2.748c-.12 0-.212-.032-.276-.096-.064-.064-.096-.156-.096-.276v-7.38c0-.128.032-.224.096-.288.064-.064.156-.096.276-.096.112 0 .2.032.264.096s.096.16.096.288v1.224l-.132-.072c.136-.48.396-.86.78-1.14.384-.28.848-.42 1.392-.42.52 0 .972.124 1.356.372.392.248.692.596.9 1.044.216.448.324.98.324 1.596 0 .616-.108 1.152-.324 1.608a2.423 2.423 0 0 1-.888 1.044c-.384.24-.84.36-1.368.36-.544 0-1.008-.14-1.392-.42a2.06 2.06 0 0 1-.78-1.116h.132v3.3c0 .12-.032.212-.096.276a.357.357 0 0 1-.264.096Zm2.292-2.748c.392 0 .732-.092 1.02-.276.296-.192.524-.468.684-.828.16-.36.24-.792.24-1.296 0-.76-.176-1.348-.528-1.764-.352-.416-.824-.624-1.416-.624-.392 0-.736.096-1.032.288-.288.184-.512.456-.672.816-.16.352-.24.78-.24 1.284 0 .768.176 1.36.528 1.776.352.416.824.624 1.416.624Zm5.919.612c-.536 0-.952-.168-1.248-.504-.288-.336-.432-.812-.432-1.428V22.84c0-.128.032-.22.096-.276.064-.064.156-.096.276-.096.112 0 .2.032.264.096.064.056.096.148.096.276v6.24c0 .464.092.812.276 1.044.184.224.452.336.804.336.08 0 .148-.004.204-.012.056-.008.112-.012.168-.012.072-.008.124.008.156.048.04.032.06.104.06.216s-.028.196-.084.252a.522.522 0 0 1-.276.12 1.274 1.274 0 0 1-.18.012 1.274 1.274 0 0 1-.18.012Zm3.541 0a2.38 2.38 0 0 1-1.055-.228 1.921 1.921 0 0 1-.733-.624 1.565 1.565 0 0 1-.263-.888c0-.432.108-.772.324-1.02.215-.248.58-.42 1.091-.516.513-.104 1.216-.156 2.112-.156h.517v.54h-.505c-.72 0-1.283.032-1.691.096-.4.056-.68.164-.84.324-.16.16-.24.384-.24.672 0 .36.124.652.372.876.248.224.584.336 1.008.336.343 0 .643-.08.9-.24.264-.168.472-.396.624-.684.151-.288.227-.616.227-.984v-1.368c0-.536-.108-.924-.323-1.164-.216-.248-.56-.372-1.032-.372-.305 0-.6.04-.889.12-.28.08-.58.208-.9.384-.088.048-.168.064-.24.048a.288.288 0 0 1-.155-.096.533.533 0 0 1-.072-.168.358.358 0 0 1 .035-.204.357.357 0 0 1 .168-.156c.337-.184.677-.32 1.02-.408a3.872 3.872 0 0 1 1.02-.144c.472 0 .86.08 1.165.24.311.16.54.4.683.72.153.32.228.732.228 1.236V30.7c0 .12-.027.212-.084.276-.056.064-.14.096-.252.096a.357.357 0 0 1-.263-.096c-.065-.064-.097-.156-.097-.276v-1.104h.12c-.072.312-.2.58-.383.804a1.824 1.824 0 0 1-.684.516c-.272.12-.576.18-.912.18Zm4.842-.024c-.12 0-.212-.032-.276-.096-.064-.064-.096-.156-.096-.276v-5.22c0-.128.032-.224.096-.288.064-.064.156-.096.276-.096.112 0 .196.032.252.096.064.064.096.16.096.288v1.128l-.132-.072c.16-.48.432-.844.816-1.092a2.46 2.46 0 0 1 1.344-.372c.464 0 .848.084 1.152.252.312.16.544.408.696.744.152.336.228.756.228 1.26V30.7c0 .12-.032.212-.096.276a.357.357 0 0 1-.264.096c-.12 0-.212-.032-.276-.096-.064-.064-.096-.156-.096-.276v-3.312c0-.584-.116-1.008-.348-1.272-.232-.272-.6-.408-1.104-.408-.576 0-1.04.18-1.392.54-.344.352-.516.828-.516 1.428V30.7c0 .248-.12.372-.36.372Z" fill="#666"/><path stroke="#D2CFDF" d="M1.372 51.004H273M1.372 83.799H273M1.372 116.594H273M1.372 149.389H273"/><rect x="14.01" y="114.787" width="35.806" height="34.526" rx="5.266" fill="#A9DEF4"/><rect x="66.665" y="98.047" width="35.806" height="51.266" rx="5.266" fill="#9CC9DC"/><rect x="119.321" y="80.261" width="35.806" height="69.052" rx="5.266" fill="#69A8C2"/><rect x="171.977" y="63.521" width="35.806" height="85.793" rx="5.266" fill="#5190AA"/><rect x="224.633" y="45.735" width="35.806" height="103.579" rx="5.266" fill="#31728D"/><path d="M31.913 116.88c87.408-14.088 144.277-30.642 211.676-71.145" stroke="#111" stroke-width="2.106"/><ellipse cx="31.563" cy="115.569" rx="11.318" ry="11.244" fill="#fff"/><ellipse cx="242.965" cy="46.596" rx="11.318" ry="11.244" fill="#fff"/><ellipse cx="242.964" cy="46.596" rx="7.545" ry="7.496" fill="#31728D"/><ellipse cx="31.567" cy="115.649" rx="7.545" ry="7.496" fill="#A9DEF4"/><g filter="url(#a)"><rect x="15.063" y="78.169" width="33.953" height="22.488" rx="4.716" fill="#fff" shape-rendering="crispEdges"/><path d="M25.605 93.509c-.248 0-.44-.068-.576-.204-.128-.144-.192-.344-.192-.6v-3.648l.324.924-2.892-4.068a.703.703 0 0 1-.144-.456.638.638 0 0 1 .204-.42c.12-.12.288-.18.504-.18.16 0 .304.04.432.12.136.08.264.204.384.372l2.148 3.048h-.336l2.16-3.048c.128-.176.252-.3.372-.372.12-.08.268-.12.444-.12.208 0 .368.056.48.168.12.104.18.236.18.396.008.16-.048.328-.168.504L26.06 89.98l.312-.924v3.648c0 .536-.256.804-.768.804Zm6.17.024c-.608 0-1.136-.124-1.584-.372a2.602 2.602 0 0 1-1.044-1.056c-.248-.464-.372-1.008-.372-1.632 0-.472.068-.892.204-1.26.144-.376.348-.696.612-.96.264-.272.58-.476.948-.612.368-.144.78-.216 1.236-.216.608 0 1.136.124 1.584.372.448.248.796.6 1.044 1.056.248.456.372.996.372 1.62 0 .472-.072.896-.216 1.272a2.69 2.69 0 0 1-.6.972c-.264.264-.58.468-.948.612-.368.136-.78.204-1.236.204Zm0-1.14c.296 0 .556-.072.78-.216.224-.144.396-.356.516-.636.128-.288.192-.644.192-1.068 0-.64-.136-1.116-.408-1.428-.272-.32-.632-.48-1.08-.48a1.41 1.41 0 0 0-.78.216c-.224.136-.4.348-.528.636-.12.28-.18.632-.18 1.056 0 .632.136 1.112.408 1.44.272.32.632.48 1.08.48Zm6.362 1.14c-.488 0-.892-.088-1.212-.264a1.714 1.714 0 0 1-.72-.816c-.152-.36-.228-.808-.228-1.344v-2.904c0-.256.064-.444.192-.564.128-.128.312-.192.552-.192.24 0 .424.064.552.192.136.12.204.308.204.564v2.928c0 .416.084.724.252.924.168.2.436.3.804.3.4 0 .728-.136.984-.408.256-.28.384-.648.384-1.104v-2.64c0-.256.064-.444.192-.564.128-.128.312-.192.552-.192.24 0 .424.064.552.192.136.12.204.308.204.564v4.536c0 .512-.244.768-.732.768-.232 0-.412-.064-.54-.192-.128-.136-.192-.328-.192-.576v-.912l.168.36c-.168.432-.424.764-.768.996-.336.232-.736.348-1.2.348Z" fill="#111"/></g><path d="M11.712 165.187a.845.845 0 0 1-.528-.156c-.128-.104-.232-.268-.312-.492l-2.508-7.092c-.088-.256-.072-.472.048-.648.128-.176.34-.264.636-.264.216 0 .384.052.504.156.12.096.216.252.288.468l2.16 6.408h-.48l2.256-6.396c.08-.216.18-.376.3-.48a.689.689 0 0 1 .468-.156c.192 0 .344.052.456.156.112.104.208.268.288.492l2.184 6.384h-.42l2.196-6.408c.072-.208.168-.364.288-.468.12-.104.284-.156.492-.156.256 0 .444.088.564.264.12.176.136.392.048.648l-2.532 7.104c-.08.216-.184.376-.312.48-.128.104-.3.156-.516.156-.216 0-.388-.052-.516-.156-.128-.104-.232-.268-.312-.492l-2.088-5.952h.276l-2.112 5.964c-.08.216-.184.376-.312.48-.12.104-.288.156-.504.156Zm11.2-.096c-.264 0-.468-.068-.612-.204-.136-.144-.204-.348-.204-.612v-6.828c0-.264.068-.464.204-.6.144-.144.348-.216.612-.216h4.284c.2 0 .352.052.456.156.112.104.168.252.168.444 0 .2-.056.356-.168.468-.104.104-.256.156-.456.156h-3.624v2.328h3.36c.208 0 .364.052.468.156.104.104.156.256.156.456s-.052.352-.156.456c-.104.104-.26.156-.468.156h-3.36v2.46h3.624c.2 0 .352.052.456.156.112.104.168.256.168.456s-.056.352-.168.456c-.104.104-.256.156-.456.156h-4.284Zm7.16 0c-.264 0-.468-.068-.612-.204-.136-.144-.204-.348-.204-.612v-6.828c0-.264.068-.464.204-.6.144-.144.348-.216.612-.216h4.284c.2 0 .352.052.456.156.112.104.168.252.168.444 0 .2-.056.356-.168.468-.104.104-.256.156-.456.156h-3.624v2.328h3.36c.208 0 .364.052.468.156.104.104.156.256.156.456s-.052.352-.156.456c-.104.104-.26.156-.468.156h-3.36v2.46h3.624c.2 0 .352.052.456.156.112.104.168.256.168.456s-.056.352-.168.456c-.104.104-.256.156-.456.156h-4.284Zm7.112.096c-.248 0-.44-.068-.576-.204-.128-.144-.192-.34-.192-.588v-7.08c0-.256.064-.448.192-.576.136-.136.328-.204.576-.204.248 0 .436.068.564.204.136.128.204.32.204.576v3.06h.024l3.444-3.456c.128-.128.256-.224.384-.288a.953.953 0 0 1 .432-.096c.232 0 .396.06.492.18a.5.5 0 0 1 .12.42.726.726 0 0 1-.228.444l-3.504 3.468.012-.696 3.66 3.72c.168.16.256.328.264.504a.564.564 0 0 1-.168.444c-.112.112-.28.168-.504.168a.829.829 0 0 1-.468-.12 3.311 3.311 0 0 1-.396-.348l-3.54-3.54h-.024v3.216c0 .248-.064.444-.192.588-.128.136-.32.204-.576.204Zm11.418-.096c-.208 0-.372-.056-.492-.168a.675.675 0 0 1-.168-.48c0-.208.056-.364.168-.468.12-.104.284-.156.492-.156h1.344v-5.892h.744l-1.764 1.068a.696.696 0 0 1-.432.108.67.67 0 0 1-.336-.168.763.763 0 0 1-.18-.336.633.633 0 0 1 .024-.384.698.698 0 0 1 .312-.336l1.656-.996c.16-.096.32-.176.48-.24a1.09 1.09 0 0 1 .444-.108c.168 0 .308.048.42.144.112.088.168.236.168.444v6.696h1.224c.208 0 .368.052.48.156.12.104.18.26.18.468 0 .208-.06.368-.18.48-.112.112-.272.168-.48.168h-4.104Zm176.094.096a.845.845 0 0 1-.528-.156c-.128-.104-.232-.268-.312-.492l-2.508-7.092c-.088-.256-.072-.472.048-.648.128-.176.34-.264.636-.264.216 0 .384.052.504.156.12.096.216.252.288.468l2.16 6.408h-.48l2.256-6.396c.08-.216.18-.376.3-.48a.689.689 0 0 1 .468-.156c.192 0 .344.052.456.156.112.104.208.268.288.492l2.184 6.384h-.42l2.196-6.408c.072-.208.168-.364.288-.468.12-.104.284-.156.492-.156.256 0 .444.088.564.264.12.176.136.392.048.648l-2.532 7.104c-.08.216-.184.376-.312.48-.128.104-.3.156-.516.156-.216 0-.388-.052-.516-.156-.128-.104-.232-.268-.312-.492l-2.088-5.952h.276l-2.112 5.964c-.08.216-.184.376-.312.48-.12.104-.288.156-.504.156Zm11.2-.096c-.264 0-.468-.068-.612-.204-.136-.144-.204-.348-.204-.612v-6.828c0-.264.068-.464.204-.6.144-.144.348-.216.612-.216h4.284c.2 0 .352.052.456.156.112.104.168.252.168.444 0 .2-.056.356-.168.468-.104.104-.256.156-.456.156h-3.624v2.328h3.36c.208 0 .364.052.468.156.104.104.156.256.156.456s-.052.352-.156.456c-.104.104-.26.156-.468.156h-3.36v2.46h3.624c.2 0 .352.052.456.156.112.104.168.256.168.456s-.056.352-.168.456c-.104.104-.256.156-.456.156h-4.284Zm7.16 0c-.264 0-.468-.068-.612-.204-.136-.144-.204-.348-.204-.612v-6.828c0-.264.068-.464.204-.6.144-.144.348-.216.612-.216h4.284c.2 0 .352.052.456.156.112.104.168.252.168.444 0 .2-.056.356-.168.468-.104.104-.256.156-.456.156h-3.624v2.328h3.36c.208 0 .364.052.468.156.104.104.156.256.156.456s-.052.352-.156.456c-.104.104-.26.156-.468.156h-3.36v2.46h3.624c.2 0 .352.052.456.156.112.104.168.256.168.456s-.056.352-.168.456c-.104.104-.256.156-.456.156h-4.284Zm7.112.096c-.248 0-.44-.068-.576-.204-.128-.144-.192-.34-.192-.588v-7.08c0-.256.064-.448.192-.576.136-.136.328-.204.576-.204.248 0 .436.068.564.204.136.128.204.32.204.576v3.06h.024l3.444-3.456c.128-.128.256-.224.384-.288a.953.953 0 0 1 .432-.096c.232 0 .396.06.492.18a.5.5 0 0 1 .12.42.726.726 0 0 1-.228.444l-3.504 3.468.012-.696 3.66 3.72c.168.16.256.328.264.504a.564.564 0 0 1-.168.444c-.112.112-.28.168-.504.168a.829.829 0 0 1-.468-.12 3.311 3.311 0 0 1-.396-.348l-3.54-3.54h-.024v3.216c0 .248-.064.444-.192.588-.128.136-.32.204-.576.204Zm14.502 0c-.24 0-.428-.064-.564-.192-.136-.136-.204-.328-.204-.576v-.936h-2.964c-.248 0-.448-.052-.6-.156-.144-.104-.216-.268-.216-.492 0-.128.032-.268.096-.42a4.31 4.31 0 0 1 .372-.6l3.288-4.764c.112-.168.236-.296.372-.384a.842.842 0 0 1 .468-.132c.208 0 .38.064.516.192.136.12.204.312.204.576v4.908h.588c.232 0 .404.056.516.168.12.104.18.26.18.468 0 .208-.06.368-.18.48-.112.104-.284.156-.516.156h-.588v.936c0 .248-.068.44-.204.576-.136.128-.324.192-.564.192Zm-.768-2.976v-3.744h.348l-2.832 4.152v-.408h2.484Z" fill="#111"/><g filter="url(#b)"><rect x="224.633" y="9.116" width="35.539" height="22.362" rx="4.716" fill="#fff" shape-rendering="crispEdges"/><path d="M234.323 24.417c-.936 0-1.728-.176-2.376-.528a3.531 3.531 0 0 1-1.464-1.5c-.336-.648-.504-1.416-.504-2.304 0-.672.096-1.276.288-1.812.2-.536.484-.992.852-1.368a3.69 3.69 0 0 1 1.368-.876c.536-.208 1.144-.312 1.824-.312.448 0 .896.056 1.344.168.456.104.884.284 1.284.54a.601.601 0 0 1 .264.324c.048.128.056.26.024.396a.763.763 0 0 1-.18.336.578.578 0 0 1-.336.18c-.128.024-.272-.008-.432-.096a3.654 3.654 0 0 0-.924-.384c-.312-.08-.66-.12-1.044-.12-.592 0-1.092.12-1.5.36a2.208 2.208 0 0 0-.924 1.02c-.2.448-.3.996-.3 1.644 0 .984.236 1.732.708 2.244.472.512 1.172.768 2.1.768.32 0 .644-.032.972-.096a6.55 6.55 0 0 0 .96-.264l-.3.684v-2.556h-1.32c-.2 0-.356-.052-.468-.156a.568.568 0 0 1-.156-.42c0-.184.052-.324.156-.42.112-.096.268-.144.468-.144h1.98c.2 0 .352.056.456.168.112.104.168.256.168.456v2.916a.85.85 0 0 1-.108.444.572.572 0 0 1-.324.264 7.999 7.999 0 0 1-1.212.324c-.456.08-.904.12-1.344.12Zm7.3 0c-.608 0-1.136-.124-1.584-.372a2.602 2.602 0 0 1-1.044-1.056c-.248-.464-.372-1.008-.372-1.632 0-.472.068-.892.204-1.26.144-.376.348-.696.612-.96.264-.272.58-.476.948-.612.368-.144.78-.216 1.236-.216.608 0 1.136.124 1.584.372.448.248.796.6 1.044 1.056.248.456.372.996.372 1.62 0 .472-.072.896-.216 1.272a2.69 2.69 0 0 1-.6.972c-.264.264-.58.468-.948.612-.368.136-.78.204-1.236.204Zm0-1.14c.296 0 .556-.072.78-.216.224-.144.396-.356.516-.636.128-.288.192-.644.192-1.068 0-.64-.136-1.116-.408-1.428-.272-.32-.632-.48-1.08-.48a1.41 1.41 0 0 0-.78.216c-.224.136-.4.348-.528.636-.12.28-.18.632-.18 1.056 0 .632.136 1.112.408 1.44.272.32.632.48 1.08.48Zm6.17 1.14a2.62 2.62 0 0 1-1.14-.24 2.067 2.067 0 0 1-.78-.672 1.688 1.688 0 0 1-.276-.948c0-.432.112-.772.336-1.02.224-.256.588-.44 1.092-.552.504-.112 1.18-.168 2.028-.168h.6v.864h-.588c-.496 0-.892.024-1.188.072-.296.048-.508.132-.636.252-.12.112-.18.272-.18.48 0 .264.092.48.276.648.184.168.44.252.768.252.264 0 .496-.06.696-.18.208-.128.372-.3.492-.516.12-.216.18-.464.18-.744v-1.38c0-.4-.088-.688-.264-.864-.176-.176-.472-.264-.888-.264a3.766 3.766 0 0 0-1.596.372c-.152.072-.288.092-.408.06a.459.459 0 0 1-.264-.192.63.63 0 0 1-.096-.336c0-.12.032-.236.096-.348a.572.572 0 0 1 .324-.264c.368-.152.72-.26 1.056-.324a5.16 5.16 0 0 1 .936-.096c.576 0 1.048.088 1.416.264.376.176.656.444.84.804.184.352.276.808.276 1.368v2.88c0 .248-.06.44-.18.576-.12.128-.292.192-.516.192-.224 0-.4-.064-.528-.192-.12-.136-.18-.328-.18-.576v-.576h.096a1.627 1.627 0 0 1-.948 1.2 2.05 2.05 0 0 1-.852.168Zm6.634 0c-.664 0-1.164-.188-1.5-.564-.336-.384-.504-.944-.504-1.68v-5.676c0-.248.064-.436.192-.564.128-.128.312-.192.552-.192.24 0 .424.064.552.192.136.128.204.316.204.564v5.604c0 .368.076.64.228.816.16.176.384.264.672.264h.18l.168-.024c.112-.016.188.016.228.096.04.072.06.224.06.456 0 .2-.04.356-.12.468-.08.112-.212.18-.396.204l-.252.024a2.915 2.915 0 0 1-.264.012Z" fill="#111"/></g><defs><filter id="a" x="4.531" y="69.744" width="55.016" height="43.55" filterUnits="userSpaceOnUse" color-interpolation-filters="sRGB"><feFlood flood-opacity="0" result="BackgroundImageFix"/><feColorMatrix in="SourceAlpha" values="0 0 0 0 0 0 0 0 0 0 0 0 0 0 0 0 0 0 127 0" result="hardAlpha"/><feOffset dy="2.106"/><feGaussianBlur stdDeviation="5.266"/><feComposite in2="hardAlpha" operator="out"/><feColorMatrix values="0 0 0 0 0 0 0 0 0 0 0 0 0 0 0 0 0 0 0.15 0"/><feBlend in2="BackgroundImageFix" result="effect1_dropShadow_2_1424"/><feBlend in="SourceGraphic" in2="effect1_dropShadow_2_1424" result="shape"/></filter><filter id="b" x="214.102" y=".691" width="56.602" height="43.424" filterUnits="userSpaceOnUse" color-interpolation-filters="sRGB"><feFlood flood-opacity="0" result="BackgroundImageFix"/><feColorMatrix in="SourceAlpha" values="0 0 0 0 0 0 0 0 0 0 0 0 0 0 0 0 0 0 127 0" result="hardAlpha"/><feOffset dy="2.106"/><feGaussianBlur stdDeviation="5.266"/><feComposite in2="hardAlpha" operator="out"/><feColorMatrix values="0 0 0 0 0 0 0 0 0 0 0 0 0 0 0 0 0 0 0.15 0"/><feBlend in2="BackgroundImageFix" result="effect1_dropShadow_2_1424"/><feBlend in="SourceGraphic" in2="effect1_dropShadow_2_1424" result="shape"/></filter></defs></svg>