<svg width="30" height="30" fill="none" xmlns="http://www.w3.org/2000/svg"><g clip-path="url(#a)"><path fill-rule="evenodd" clip-rule="evenodd" d="M12.585 3.657c-2.62-1.33-5.067-1.432-6.887-.384C3.88 4.321 2.745 6.485 2.59 9.413c-.154 2.914.688 6.418 2.632 9.779 1.706 2.95 3.933 5.22 6.214 6.627-.377-.944-.586-1.986-.643-3.062-.14-2.658.624-5.693 2.257-8.516 1.398-2.416 3.248-4.36 5.243-5.626-1.703-2.249-3.71-3.943-5.708-4.958Zm7.091 7.027c-1.633 1.025-3.236 2.667-4.471 4.803-1.428 2.468-2.038 5.028-1.927 7.138.113 2.124.93 3.623 2.168 4.336.451.26.965.42 1.528.471a5.392 5.392 0 0 0 2.306-.692c1.45-.835 2.464-2.378 2.895-4.453.11-.529.181-1.092.213-1.687.154-2.914-.688-6.418-2.632-9.778a20.528 20.528 0 0 0-.08-.138Zm-2.715 19.243c-1.878.096-3.84-.41-5.695-1.352-3.096-1.572-6.05-4.421-8.199-8.137C.917 16.721-.079 12.744.105 9.28c.182-3.448 1.56-6.556 4.35-8.163 2.79-1.607 6.175-1.245 9.257.32 1.258.64 2.493 1.49 3.66 2.523l.016.014a21.94 21.94 0 0 1 3.172 3.52c2.018-.72 4.146-.745 5.97.307m-1.935 15.062c.148-.688.24-1.402.279-2.132.181-3.436-.798-7.38-2.914-11.071 1.286-.34 2.431-.22 3.328.296 1.238.713 2.056 2.212 2.168 4.336.112 2.11-.498 4.67-1.926 7.139a15.74 15.74 0 0 1-.935 1.432Zm-7.634 7.063c1.484.086 3.026-.313 4.463-1.042 2.376-1.207 4.627-3.384 6.26-6.208 1.634-2.823 2.398-5.857 2.258-8.515-.14-2.645-1.202-5.088-3.411-6.36" fill="#31728D"/></g><defs><clipPath id="a"><path fill="#fff" d="M0 0h30v30H0z"/></clipPath></defs></svg>